<?xml version="1.0" standalone="no"?>
<!DOCTYPE svg PUBLIC "-//W3C//DTD SVG 20010904//EN"
 "http://www.w3.org/TR/2001/REC-SVG-20010904/DTD/svg10.dtd">
<svg version="1.0" xmlns="http://www.w3.org/2000/svg"
 width="512.000000pt" height="512.000000pt" viewBox="0 0 512.000000 512.000000"
 preserveAspectRatio="xMidYMid meet">

<g transform="translate(0.000000,512.000000) scale(0.100000,-0.100000)"
fill="#000000" stroke="none">
<path d="M3527 4899 c-24 -24 -61 -66 -84 -93 l-41 -49 -152 46 c-448 139
-851 153 -1176 42 -279 -96 -528 -296 -674 -540 -13 -22 -25 -42 -26 -43 -1
-2 -301 -50 -666 -107 -644 -101 -664 -105 -685 -130 -28 -32 -29 -65 -4 -92
36 -39 397 -226 606 -315 127 -54 348 -129 480 -163 472 -121 896 -122 1234
-4 64 22 127 42 141 45 19 3 139 -55 480 -235 250 -132 456 -245 458 -253 18
-71 54 -163 104 -260 162 -320 463 -611 891 -862 188 -111 577 -286 634 -286
31 0 73 42 73 72 0 13 -128 243 -285 512 l-285 488 59 82 c136 187 220 425
221 622 0 118 -45 295 -106 416 -99 195 -302 405 -556 577 -43 28 -78 55 -78
59 0 4 16 47 35 96 41 105 43 125 12 154 -26 25 -495 250 -538 259 -25 5 -36
-1 -72 -38z m-767 -144 c63 -7 158 -23 210 -34 101 -23 310 -84 313 -92 1 -3
-71 -89 -160 -192 -96 -111 -163 -196 -163 -208 0 -23 18 -60 34 -71 23 -16
77 -8 99 15 12 12 134 151 271 309 l248 287 72 -34 c39 -18 124 -58 188 -88
l117 -56 -13 -33 c-8 -18 -130 -332 -271 -698 -141 -366 -260 -668 -263 -672
-4 -3 -169 79 -367 184 -198 104 -384 202 -412 216 l-53 27 160 184 c147 170
166 197 161 241 -3 25 -41 50 -76 50 -31 0 -47 -15 -205 -197 -95 -109 -175
-198 -179 -198 -16 0 -940 521 -941 530 0 20 107 152 182 224 95 90 165 139
283 196 220 107 481 145 765 110z m1343 -527 c221 -149 401 -337 486 -506 122
-244 114 -490 -25 -752 -46 -85 -119 -190 -134 -190 -8 0 -842 329 -847 334
-3 3 434 1132 443 1147 8 13 10 12 77 -33z m-2246 -368 c247 -138 449 -254
451 -258 3 -10 -188 -58 -293 -73 -104 -15 -352 -15 -485 0 -333 39 -695 151
-1073 334 -82 39 -144 73 -138 75 11 4 1054 169 1078 171 7 1 214 -112 460
-249z m2162 -1083 l383 -154 230 -393 c126 -216 227 -394 225 -396 -7 -8 -348
168 -452 233 -300 187 -534 406 -689 645 -49 75 -116 204 -116 223 0 9 2 8
419 -158z"/>
<path d="M1535 3113 c-340 -53 -596 -202 -784 -453 -332 -444 -285 -1076 109
-1470 136 -136 328 -247 515 -297 92 -24 116 -27 285 -27 168 0 194 3 283 27
54 14 147 50 208 78 l110 53 132 -132 c115 -115 136 -132 165 -132 42 0 72 30
72 73 0 28 -16 48 -125 157 l-124 124 75 75 76 74 389 -389 c389 -389 389
-390 389 -432 0 -49 -39 -100 -80 -103 -65 -5 -72 0 -261 188 -163 161 -193
186 -219 186 -41 0 -73 -33 -73 -74 0 -28 23 -55 199 -229 189 -188 202 -199
258 -215 169 -49 329 71 329 245 0 108 -7 118 -442 555 l-397 400 42 80 c135
255 161 574 69 862 -106 335 -382 612 -725 726 -122 41 -370 67 -475 50z m332
-169 c231 -47 473 -211 606 -412 319 -479 158 -1130 -346 -1402 -490 -264
-1097 -72 -1344 425 -253 507 -17 1127 508 1338 187 75 375 92 576 51z"/>
<path d="M1512 2839 c-176 -31 -320 -107 -453 -239 -113 -111 -174 -207 -221
-350 -31 -91 -32 -102 -33 -255 0 -137 3 -171 23 -238 78 -269 285 -491 547
-584 165 -59 405 -59 570 0 211 75 392 239 490 441 69 144 80 195 79 381 0
152 -2 165 -32 255 -42 126 -107 235 -199 331 -116 121 -237 194 -398 240 -81
24 -288 34 -373 18z m285 -155 c258 -53 452 -225 539 -479 25 -71 28 -95 29
-210 0 -109 -4 -142 -23 -205 -40 -127 -88 -206 -182 -301 -71 -71 -101 -94
-180 -133 -110 -54 -201 -76 -320 -76 -119 0 -210 22 -320 76 -126 63 -245
178 -308 300 -167 323 -68 722 228 919 164 109 352 147 537 109z"/>
</g>
</svg>
