<svg width="683" height="683" viewBox="0 0 683 683" fill="none" xmlns="http://www.w3.org/2000/svg">
<g clip-path="url(#clip0_4_53)">
<path d="M243.267 331.037C219.8 335.17 200.6 345.304 182.867 362.904C167.8 377.704 159.667 390.504 153.4 409.57C149.267 421.704 149.133 423.17 149 443.57C149 461.837 149.4 466.37 152.067 475.304C162.467 511.17 190.067 540.77 225 553.17C247 561.037 279 561.037 301 553.17C329.133 543.17 353.267 521.304 366.333 494.37C375.533 475.17 377 468.37 376.867 443.57C376.867 423.304 376.6 421.57 372.6 409.57C367 392.77 358.333 378.237 346.067 365.437C330.6 349.304 314.467 339.57 293 333.437C282.2 330.237 254.6 328.904 243.267 331.037ZM281.267 351.704C315.667 358.77 341.533 381.704 353.133 415.57C356.467 425.037 356.867 428.237 357 443.57C357 458.104 356.467 462.504 353.933 470.904C348.6 487.837 342.2 498.37 329.667 511.037C320.2 520.504 316.2 523.57 305.667 528.77C291 535.97 278.867 538.904 263 538.904C247.133 538.904 235 535.97 220.333 528.77C203.533 520.37 187.667 505.037 179.267 488.77C157 445.704 170.2 392.504 209.667 366.237C231.533 351.704 256.6 346.637 281.267 351.704Z" fill="#8BADAC"/>
<path d="M243.569 293.702C199.053 300.746 165.535 320.55 140.921 353.91C97.4522 412.922 103.606 496.921 155.192 549.288C172.998 567.364 198.137 582.117 222.62 588.762C234.666 591.952 237.808 592.351 259.935 592.351C281.931 592.351 285.335 591.952 296.988 588.762C304.058 586.901 316.234 582.117 324.221 578.395L338.623 571.351L355.906 588.895C370.963 604.18 373.712 606.439 377.509 606.439C383.008 606.439 386.936 602.452 386.936 596.737C386.936 593.015 384.841 590.357 370.57 575.87L354.335 559.389L364.154 549.421L374.105 539.585L425.036 591.287C475.968 642.989 475.968 643.122 475.968 648.705C475.968 655.217 470.862 661.996 465.494 662.394C456.983 663.059 456.067 662.394 431.321 637.407C409.98 616.009 406.052 612.686 402.648 612.686C397.28 612.686 393.09 617.072 393.09 622.521C393.09 626.243 396.101 629.831 419.145 652.958C443.89 677.945 445.592 679.407 452.924 681.533C475.051 688.046 496 672.097 496 648.97C496 634.616 495.083 633.287 438.129 575.205L386.151 522.041L391.65 511.409C409.325 477.516 412.729 435.118 400.684 396.84C386.805 352.315 350.669 315.499 305.76 300.347C289.787 294.898 257.316 291.442 243.569 293.702ZM287.037 316.164C317.282 322.41 348.967 344.208 366.38 370.923C408.147 434.587 387.067 521.111 321.079 557.262C256.924 592.351 177.45 566.832 145.11 500.776C111.985 433.39 142.885 350.986 211.622 322.942C236.106 312.974 260.721 310.714 287.037 316.164Z" fill="#8BADAC"/>
<path d="M470.123 40.2697C466.923 43.4697 461.989 49.0697 458.923 52.6697L453.456 59.203L433.189 53.0697C373.456 34.5363 319.723 32.6697 276.389 47.4697C239.189 60.2697 205.989 86.9363 186.523 119.47C184.789 122.403 183.189 125.07 183.056 125.203C182.923 125.47 142.923 131.87 94.2559 139.47C8.38923 152.936 5.72256 153.47 2.92256 156.803C-0.810769 161.07 -0.944102 165.47 2.38923 169.07C7.18923 174.27 55.3226 199.203 83.1892 211.07C100.123 218.27 129.589 228.27 147.189 232.803C210.123 248.936 266.656 249.07 311.723 233.336C320.256 230.403 328.656 227.736 330.523 227.336C333.056 226.936 349.056 234.67 394.523 258.67C427.856 276.27 455.323 291.336 455.589 292.403C457.989 301.87 462.789 314.136 469.456 327.07C491.056 369.736 531.189 408.536 588.256 442.003C613.323 456.803 665.189 480.136 672.789 480.136C676.923 480.136 682.523 474.536 682.523 470.536C682.523 468.803 665.456 438.136 644.523 402.27L606.523 337.203L614.389 326.27C632.523 301.336 643.723 269.603 643.856 243.336C643.856 227.603 637.856 204.003 629.723 187.87C616.523 161.87 589.456 133.87 555.589 110.936C549.856 107.203 545.189 103.603 545.189 103.07C545.189 102.536 547.323 96.803 549.856 90.2697C555.323 76.2697 555.589 73.603 551.456 69.7363C547.989 66.403 485.456 36.403 479.723 35.203C476.389 34.5363 474.923 35.3363 470.123 40.2697ZM367.856 59.4697C376.256 60.403 388.923 62.5363 395.856 64.003C409.323 67.0697 437.189 75.203 437.589 76.2697C437.723 76.6697 428.123 88.1363 416.256 101.87C403.456 116.67 394.523 128.003 394.523 129.603C394.523 132.67 396.923 137.603 399.056 139.07C402.123 141.203 409.323 140.136 412.256 137.07C413.856 135.47 430.123 116.936 448.389 95.8697L481.456 57.603L491.056 62.1363C496.256 64.5363 507.589 69.8697 516.123 73.8697L531.723 81.3363L529.989 85.7363C528.923 88.1363 512.656 130.003 493.856 178.803C475.056 227.603 459.189 267.87 458.789 268.403C458.256 268.803 436.256 257.87 409.856 243.87C383.456 230.003 358.656 216.936 354.923 215.07L347.856 211.47L369.189 186.936C388.789 164.27 391.323 160.67 390.656 154.803C390.256 151.47 385.189 148.136 380.523 148.136C376.389 148.136 374.256 150.136 353.189 174.403C340.523 188.936 329.856 200.803 329.323 200.803C327.189 200.803 203.989 131.336 203.856 130.136C203.856 127.47 218.123 109.87 228.123 100.27C240.789 88.2697 250.123 81.7363 265.856 74.1363C295.189 59.8697 329.989 54.803 367.856 59.4697ZM546.923 129.736C576.389 149.603 600.389 174.67 611.723 197.203C627.989 229.736 626.923 262.536 608.389 297.47C602.256 308.803 592.523 322.803 590.523 322.803C589.456 322.803 478.256 278.936 477.589 278.27C477.189 277.87 535.456 127.336 536.656 125.336C537.723 123.603 537.989 123.736 546.923 129.736ZM247.456 178.803C280.389 197.203 307.323 212.67 307.589 213.203C307.989 214.536 282.523 220.936 268.523 222.936C254.656 224.936 221.589 224.936 203.856 222.936C159.456 217.736 111.189 202.803 60.7892 178.403C49.8559 173.203 41.5892 168.67 42.3892 168.403C43.8559 167.87 182.923 145.87 186.123 145.603C187.056 145.47 214.656 160.536 247.456 178.803ZM535.723 323.203L586.789 343.736L617.456 396.136C634.256 424.936 647.723 448.67 647.456 448.936C646.523 450.003 601.056 426.536 587.189 417.87C547.189 392.936 515.989 363.736 495.323 331.87C488.789 321.87 479.856 304.67 479.856 302.136C479.856 300.936 480.123 301.07 535.723 323.203Z" fill="#DDB354"/>
<path d="M245.985 284.704C200.652 291.771 166.518 311.637 141.452 345.104C97.185 404.304 103.452 488.571 155.985 541.104C174.118 559.237 199.718 574.037 224.652 580.704C236.918 583.904 240.118 584.304 262.652 584.304C285.052 584.304 288.518 583.904 300.385 580.704C307.585 578.837 319.985 574.037 328.118 570.304L342.785 563.237L360.385 580.837C375.718 596.171 378.518 598.437 382.385 598.437C387.985 598.437 391.985 594.437 391.985 588.704C391.985 584.971 389.852 582.304 375.318 567.771L358.785 551.237L368.785 541.237L378.918 531.371L430.785 583.237C482.652 635.104 482.652 635.237 482.652 640.837C482.652 647.371 477.452 654.171 471.985 654.571C463.318 655.237 462.385 654.571 437.185 629.504C415.452 608.037 411.452 604.704 407.985 604.704C402.518 604.704 398.252 609.104 398.252 614.571C398.252 618.304 401.318 621.904 424.785 645.104C449.985 670.171 451.718 671.637 459.185 673.771C481.718 680.304 503.052 664.304 503.052 641.104C503.052 626.704 502.118 625.371 444.118 567.104L391.185 513.771L396.785 503.104C414.785 469.104 418.252 426.571 405.985 388.171C391.852 343.504 355.052 306.571 309.318 291.371C293.052 285.904 259.985 282.437 245.985 284.704ZM290.252 307.237C321.052 313.504 353.318 335.371 371.052 362.171C413.585 426.037 392.118 512.837 324.918 549.104C259.585 584.304 178.652 558.704 145.718 492.437C111.985 424.837 143.452 342.171 213.452 314.037C238.385 304.037 263.452 301.771 290.252 307.237Z" fill="#A4C7C6"/>
<path d="M242.918 321.237C219.452 325.371 200.252 335.504 182.518 353.104C167.452 367.904 159.318 380.704 153.052 399.771C148.918 411.904 148.785 413.371 148.652 433.771C148.652 452.037 149.052 456.571 151.718 465.504C162.118 501.371 189.718 530.971 224.652 543.371C246.652 551.237 278.652 551.237 300.652 543.371C328.785 533.371 352.918 511.504 365.985 484.571C375.185 465.371 376.652 458.571 376.518 433.771C376.518 413.504 376.252 411.771 372.252 399.771C366.652 382.971 357.985 368.437 345.718 355.637C330.252 339.504 314.118 329.771 292.652 323.637C281.852 320.437 254.252 319.104 242.918 321.237ZM280.918 341.904C315.318 348.971 341.185 371.904 352.785 405.771C356.118 415.237 356.518 418.437 356.652 433.771C356.652 448.304 356.118 452.704 353.585 461.104C348.252 478.037 341.852 488.571 329.318 501.237C319.852 510.704 315.852 513.771 305.318 518.971C290.652 526.171 278.518 529.104 262.652 529.104C246.785 529.104 234.652 526.171 219.985 518.971C203.185 510.571 187.318 495.237 178.918 478.971C156.652 435.904 169.852 382.704 209.318 356.437C231.185 341.904 256.252 336.837 280.918 341.904Z" fill="#A4C7C6"/>
<path d="M470.123 29.2695C466.923 32.4695 461.989 38.0695 458.923 41.6695L453.456 48.2029L433.189 42.0695C373.456 23.5362 319.723 21.6695 276.389 36.4695C239.189 49.2695 205.989 75.9362 186.523 108.47C184.789 111.403 183.189 114.07 183.056 114.203C182.923 114.47 142.923 120.87 94.2559 128.47C8.38923 141.936 5.72256 142.47 2.92256 145.803C-0.810769 150.07 -0.944102 154.47 2.38923 158.07C7.18923 163.27 55.3226 188.203 83.1892 200.07C100.123 207.27 129.589 217.27 147.189 221.803C210.123 237.936 266.656 238.07 311.723 222.336C320.256 219.403 328.656 216.736 330.523 216.336C333.056 215.936 349.056 223.67 394.523 247.67C427.856 265.27 455.323 280.336 455.589 281.403C457.989 290.87 462.789 303.136 469.456 316.07C491.056 358.736 531.189 397.536 588.256 431.003C613.323 445.803 665.189 469.136 672.789 469.136C676.923 469.136 682.523 463.536 682.523 459.536C682.523 457.803 665.456 427.136 644.523 391.27L606.523 326.203L614.389 315.27C632.523 290.336 643.723 258.603 643.856 232.336C643.856 216.603 637.856 193.003 629.723 176.87C616.523 150.87 589.456 122.87 555.589 99.9362C549.856 96.2029 545.189 92.6029 545.189 92.0695C545.189 91.5362 547.323 85.8029 549.856 79.2695C555.323 65.2695 555.589 62.6029 551.456 58.7362C547.989 55.4029 485.456 25.4029 479.723 24.2029C476.389 23.5362 474.923 24.3362 470.123 29.2695ZM367.856 48.4695C376.256 49.4029 388.923 51.5362 395.856 53.0029C409.323 56.0695 437.189 64.2029 437.589 65.2695C437.723 65.6695 428.123 77.1362 416.256 90.8695C403.456 105.67 394.523 117.003 394.523 118.603C394.523 121.67 396.923 126.603 399.056 128.07C402.123 130.203 409.323 129.136 412.256 126.07C413.856 124.47 430.123 105.936 448.389 84.8695L481.456 46.6029L491.056 51.1362C496.256 53.5362 507.589 58.8695 516.123 62.8695L531.723 70.3362L529.989 74.7362C528.923 77.1362 512.656 119.003 493.856 167.803C475.056 216.603 459.189 256.87 458.789 257.403C458.256 257.803 436.256 246.87 409.856 232.87C383.456 219.003 358.656 205.936 354.923 204.07L347.856 200.47L369.189 175.936C388.789 153.27 391.323 149.67 390.656 143.803C390.256 140.47 385.189 137.136 380.523 137.136C376.389 137.136 374.256 139.136 353.189 163.403C340.523 177.936 329.856 189.803 329.323 189.803C327.189 189.803 203.989 120.336 203.856 119.136C203.856 116.47 218.123 98.8695 228.123 89.2695C240.789 77.2695 250.123 70.7362 265.856 63.1362C295.189 48.8695 329.989 43.8029 367.856 48.4695ZM546.923 118.736C576.389 138.603 600.389 163.67 611.723 186.203C627.989 218.736 626.923 251.536 608.389 286.47C602.256 297.803 592.523 311.803 590.523 311.803C589.456 311.803 478.256 267.936 477.589 267.27C477.189 266.87 535.456 116.336 536.656 114.336C537.723 112.603 537.989 112.736 546.923 118.736ZM247.456 167.803C280.389 186.203 307.323 201.67 307.589 202.203C307.989 203.536 282.523 209.936 268.523 211.936C254.656 213.936 221.589 213.936 203.856 211.936C159.456 206.736 111.189 191.803 60.7892 167.403C49.8559 162.203 41.5892 157.67 42.3892 157.403C43.8559 156.87 182.923 134.87 186.123 134.603C187.056 134.47 214.656 149.536 247.456 167.803ZM535.723 312.203L586.789 332.736L617.456 385.136C634.256 413.936 647.723 437.67 647.456 437.936C646.523 439.003 601.056 415.536 587.189 406.87C547.189 381.936 515.989 352.736 495.323 320.87C488.789 310.87 479.856 293.67 479.856 291.136C479.856 289.936 480.123 290.07 535.723 312.203Z" fill="#FACD66"/>
</g>
<defs>
<clipPath id="clip0_4_53">
<rect width="682.667" height="682.667" fill="white"/>
</clipPath>
</defs>
</svg>
