<?xml version="1.0" standalone="no"?>
<!DOCTYPE svg PUBLIC "-//W3C//DTD SVG 20010904//EN"
 "http://www.w3.org/TR/2001/REC-SVG-20010904/DTD/svg10.dtd">
<svg version="1.0" xmlns="http://www.w3.org/2000/svg"
 width="512.000000pt" height="512.000000pt" viewBox="0 0 512.000000 512.000000"
 preserveAspectRatio="xMidYMid meet">

<g transform="translate(0.000000,512.000000) scale(0.100000,-0.100000)"
fill="#000000" stroke="none">
<path d="M1715 5056 c-208 -41 -386 -147 -575 -342 -141 -146 -290 -347 -290
-391 0 -57 51 -94 99 -73 14 6 46 41 71 78 155 230 357 430 520 512 197 99
407 99 563 0 225 -142 350 -451 293 -720 -44 -203 -75 -244 -533 -694 l-381
-376 -449 281 c-246 155 -452 285 -456 289 -5 4 46 92 112 195 67 104 121 194
121 201 0 28 -24 63 -49 74 -53 22 -70 4 -215 -221 -75 -117 -139 -223 -142
-236 -7 -27 1 -61 20 -86 7 -9 242 -161 522 -337 440 -277 513 -320 546 -320
38 0 52 12 454 408 228 224 432 432 453 462 55 79 97 166 128 267 23 78 26
105 26 228 0 160 -18 247 -78 374 -148 312 -458 486 -760 427z"/>
<path d="M3535 3350 c-174 -27 -378 -113 -513 -215 l-74 -55 -66 21 c-85 27
-287 37 -388 20 -158 -28 -327 -116 -444 -230 -31 -31 -116 -135 -188 -231
-142 -188 -155 -217 -112 -260 25 -25 74 -26 98 -2 10 10 73 91 140 179 145
192 234 278 343 332 112 57 204 75 347 69 162 -7 161 -6 106 -81 -67 -92 -150
-267 -180 -382 -36 -135 -44 -348 -19 -480 27 -146 79 -280 159 -411 l26 -42
-306 -252 c-257 -213 -308 -250 -319 -239 -27 28 -657 804 -662 816 -2 6 34
62 81 123 90 117 100 145 70 188 -11 16 -25 22 -53 22 -44 0 -51 -7 -175 -169
-89 -116 -103 -144 -92 -183 3 -13 178 -234 388 -492 275 -337 391 -472 411
-479 52 -17 88 0 203 96 284 236 536 442 545 445 5 2 39 -23 74 -57 315 -294
789 -379 1192 -212 l72 30 60 -99 59 -98 -49 -31 c-70 -43 -91 -81 -86 -156 3
-57 12 -75 198 -394 218 -375 227 -385 323 -385 47 0 66 8 197 83 165 96 174
103 200 153 21 42 24 83 8 125 -5 15 -94 174 -197 352 -207 358 -218 372 -307
379 -45 4 -63 0 -106 -22 -28 -15 -52 -26 -54 -24 -1 2 -28 45 -60 97 l-57 95
29 20 c306 221 497 622 468 986 -40 501 -376 904 -855 1025 -118 30 -327 41
-435 25z m398 -170 c359 -92 630 -367 719 -730 25 -100 29 -299 9 -395 -85
-408 -377 -700 -786 -786 -88 -19 -274 -17 -375 5 -356 74 -637 334 -746 691
-26 84 -28 102 -28 265 0 162 2 182 27 265 53 171 126 300 238 413 146 150
328 247 536 287 104 20 300 13 406 -15z m852 -2491 c99 -171 181 -317 183
-323 1 -7 -57 -46 -130 -89 -125 -71 -134 -75 -149 -59 -24 25 -359 608 -359
624 0 14 235 157 260 157 9 1 84 -118 195 -310z"/>
<path d="M3525 3034 c-292 -64 -524 -280 -617 -574 -20 -66 -23 -95 -23 -235
1 -149 3 -166 28 -240 156 -448 615 -677 1054 -526 223 77 409 255 493 473
175 454 -74 953 -542 1089 -98 28 -295 35 -393 13z m381 -168 c330 -107 523
-454 443 -795 -6 -25 -31 -88 -56 -139 -87 -183 -265 -317 -473 -358 -200 -39
-415 20 -562 155 l-60 56 67 100 c77 114 126 214 158 324 17 60 21 102 21 201
0 110 -4 135 -28 205 -15 44 -41 102 -57 129 -17 26 -29 49 -27 51 19 17 146
71 202 86 102 28 261 21 372 -15z m-656 -239 c50 -112 60 -208 34 -335 -21
-101 -62 -198 -126 -297 l-51 -80 -23 50 c-38 82 -54 163 -54 265 0 106 17
190 55 275 28 64 111 185 126 185 6 0 23 -28 39 -63z"/>
<path d="M169 3281 c-15 -11 -45 -58 -67 -103 -124 -258 -134 -474 -32 -687
33 -67 57 -101 123 -166 68 -69 98 -90 177 -128 121 -58 181 -72 305 -71 190
0 313 52 450 189 71 70 100 108 133 173 48 95 52 130 20 165 -13 14 -156 108
-318 210 -162 101 -383 240 -490 307 -215 135 -253 149 -301 111z m522 -427
c241 -153 439 -281 439 -286 0 -21 -71 -117 -124 -166 -70 -66 -162 -109 -266
-124 -250 -37 -509 132 -572 371 -21 84 -22 161 -2 259 14 71 69 222 81 222 2
0 202 -124 444 -276z"/>
<path d="M990 1654 c-119 -68 -218 -171 -278 -289 -97 -194 -86 -437 30 -633
50 -85 170 -201 253 -243 123 -64 165 -74 310 -74 152 0 224 18 367 92 168 86
223 148 195 216 -17 40 -749 942 -772 951 -31 11 -60 6 -105 -20z m371 -531
c173 -212 320 -395 328 -405 17 -24 5 -34 -104 -87 -234 -114 -454 -91 -620
63 -197 183 -224 499 -61 695 35 41 125 121 136 121 4 0 148 -174 321 -387z"/>
</g>
</svg>
