<svg width="34" height="34" viewBox="0 0 34 34" fill="none" xmlns="http://www.w3.org/2000/svg">
<g clip-path="url(#clip0_4_34)">
<g filter="url(#filter0_d_4_34)">
<path d="M11.3886 0.425C10.0074 0.697265 8.82534 1.40117 7.57026 2.69609C6.63393 3.66562 5.64448 5.00039 5.64448 5.29258C5.64448 5.67109 5.98315 5.9168 6.3019 5.77734C6.39487 5.7375 6.60737 5.50508 6.77339 5.25937C7.80268 3.73203 9.14409 2.40391 10.2265 1.85937C11.5347 1.20195 12.9292 1.20195 13.9652 1.85937C15.4593 2.80234 16.2894 4.8543 15.9109 6.64062C15.6187 7.98867 15.4128 8.26094 12.3714 11.2492L9.84135 13.7461L6.85971 11.8801C5.22612 10.8508 3.85815 9.9875 3.83159 9.96094C3.79839 9.93437 4.13706 9.35 4.57534 8.66602C5.02026 7.97539 5.37886 7.37773 5.37886 7.33125C5.37886 7.14531 5.21948 6.91289 5.05346 6.83984C4.70151 6.69375 4.58862 6.81328 3.62573 8.30742C3.12768 9.08437 2.70268 9.78828 2.68276 9.87461C2.63628 10.0539 2.6894 10.2797 2.81557 10.4457C2.86206 10.5055 4.42261 11.5148 6.28198 12.6836C9.20386 14.523 9.68862 14.8086 9.90776 14.8086C10.1601 14.8086 10.2531 14.7289 12.9226 12.0992C14.4367 10.6117 15.7914 9.23047 15.9308 9.03125C16.296 8.50664 16.5749 7.92891 16.7808 7.2582C16.9335 6.74023 16.9535 6.56094 16.9535 5.74414C16.9535 4.68164 16.8339 4.10391 16.4355 3.26055C15.4527 1.18867 13.3941 0.0332027 11.3886 0.425Z" fill="#FACD66"/>
</g>
<g filter="url(#filter1_d_4_34)">
<path d="M23.4746 11.754C22.3191 11.9333 20.9644 12.5043 20.0679 13.1817L19.5765 13.5469L19.1382 13.4075C18.5738 13.2282 17.2324 13.1618 16.5617 13.2747C15.5125 13.4606 14.3902 14.045 13.6132 14.802C13.4074 15.0079 12.8429 15.6985 12.3648 16.336C11.4218 17.5844 11.3355 17.777 11.6211 18.0625C11.7871 18.2286 12.1125 18.2352 12.2718 18.0758C12.3382 18.0094 12.7566 17.4715 13.2015 16.8872C14.1644 15.6122 14.7554 15.0411 15.4793 14.6825C16.223 14.304 16.8339 14.1844 17.7836 14.2243C18.8593 14.2708 18.8527 14.2641 18.4875 14.7622C18.0425 15.3731 17.4914 16.5352 17.2921 17.2989C17.0531 18.1954 17 19.6098 17.166 20.4864C17.3453 21.4559 17.6906 22.3458 18.2218 23.2157L18.3945 23.4946L16.3625 25.168C14.6558 26.5825 14.3171 26.8282 14.2441 26.7551C14.0648 26.5692 9.88121 21.4161 9.848 21.3364C9.83472 21.2965 10.0738 20.9247 10.3859 20.5196C10.9836 19.7426 11.05 19.5567 10.8507 19.2711C10.7777 19.1649 10.6847 19.125 10.4988 19.125C10.2066 19.125 10.1601 19.1715 9.33668 20.2473C8.74566 21.0176 8.65269 21.2036 8.72574 21.4625C8.74566 21.5489 9.90777 23.0165 11.3023 24.7297C13.1285 26.9676 13.8988 27.8641 14.0316 27.9106C14.3769 28.0235 14.616 27.9106 15.3796 27.2731C17.2656 25.7059 18.939 24.3379 18.9988 24.318C19.032 24.3047 19.2578 24.4708 19.4902 24.6965C21.582 26.6489 24.7296 27.2133 27.4058 26.1043L27.8839 25.9051L28.2824 26.5625L28.6742 27.2133L28.3488 27.4192C27.8839 27.7047 27.7445 27.9571 27.7777 28.4551C27.7976 28.8336 27.8574 28.9532 29.0925 31.0715C30.5402 33.5618 30.6 33.6282 31.2375 33.6282C31.5496 33.6282 31.6757 33.575 32.5457 33.077C33.6414 32.4395 33.7011 32.393 33.8738 32.061C34.0132 31.7821 34.0332 31.5098 33.9269 31.2309C33.8937 31.1313 33.3027 30.0754 32.6187 28.8934C31.2441 26.5161 31.1711 26.4231 30.58 26.3766C30.2812 26.35 30.1617 26.3766 29.8761 26.5227C29.6902 26.6223 29.5308 26.6954 29.5175 26.6821C29.5109 26.6688 29.3316 26.3833 29.1191 26.0379L28.7406 25.4071L28.9332 25.2743C30.9652 23.8067 32.2336 21.1438 32.041 18.7266C31.7754 15.3997 29.5441 12.7235 26.3632 11.92C25.5796 11.7208 24.1918 11.6477 23.4746 11.754ZM26.1175 12.8829C28.5015 13.4938 30.3011 15.32 30.8921 17.7305C31.0582 18.3946 31.0847 19.7161 30.9519 20.3536C30.3875 23.0629 28.4484 25.002 25.7324 25.5731C25.148 25.6993 23.9128 25.686 23.2421 25.5399C20.8781 25.0485 19.0121 23.3219 18.2882 20.9512C18.1156 20.3934 18.1023 20.2739 18.1023 19.1915C18.1023 18.1157 18.1156 17.9829 18.2816 17.4317C18.6336 16.2961 19.1183 15.4395 19.8621 14.6891C20.8316 13.693 22.0402 13.0489 23.4214 12.7833C24.1121 12.6504 25.4136 12.6969 26.1175 12.8829ZM31.7754 29.4247C32.4328 30.5602 32.9773 31.5297 32.9906 31.5696C32.9972 31.6161 32.6121 31.875 32.1273 32.1606C31.2972 32.6321 31.2375 32.6586 31.1379 32.5524C30.9785 32.3864 28.7539 28.5149 28.7539 28.4086C28.7539 28.3157 30.3144 27.3661 30.4804 27.3661C30.5402 27.3594 31.0382 28.1497 31.7754 29.4247Z" fill="#A4C7C6"/>
</g>
<g filter="url(#filter2_d_4_34)">
<path d="M23.4082 13.8523C21.4691 14.2773 19.9285 15.7117 19.3109 17.6641C19.1781 18.1024 19.1582 18.2949 19.1582 19.2246C19.1648 20.2141 19.1781 20.327 19.3441 20.8184C20.3801 23.7934 23.4281 25.3141 26.3434 24.3113C27.8242 23.8 29.0594 22.618 29.6172 21.1703C30.7793 18.1555 29.1258 14.8418 26.018 13.9387C25.3672 13.7527 24.059 13.7063 23.4082 13.8523ZM25.9383 14.968C28.1297 15.6785 29.4113 17.9828 28.8801 20.2473C28.8402 20.4133 28.6742 20.8316 28.5082 21.1703C27.9305 22.3856 26.7484 23.2754 25.3672 23.5477C24.0391 23.8066 22.6113 23.4149 21.6352 22.5184L21.2367 22.1465L21.6816 21.4824C22.193 20.7254 22.5184 20.0613 22.7309 19.3309C22.8437 18.9324 22.8703 18.6535 22.8703 17.9961C22.8703 17.2656 22.8437 17.0996 22.6844 16.6348C22.5848 16.3426 22.4121 15.9574 22.3059 15.7781C22.193 15.6055 22.1133 15.4527 22.1266 15.4395C22.2527 15.3266 23.0961 14.968 23.468 14.8684C24.1453 14.6824 25.2012 14.7289 25.9383 14.968ZM21.582 16.5551C21.9141 17.2988 21.9805 17.9363 21.8078 18.7797C21.6684 19.4504 21.3961 20.0945 20.9711 20.752L20.6324 21.2832L20.4797 20.9512C20.2273 20.4066 20.1211 19.8688 20.1211 19.1914C20.1211 18.4875 20.234 17.9297 20.4863 17.3652C20.6723 16.9402 21.2234 16.1367 21.323 16.1367C21.3629 16.1367 21.4758 16.3227 21.582 16.5551Z" fill="#A4C7C6"/>
</g>
<g filter="url(#filter3_d_4_34)">
<path d="M1.12224 12.2122C1.02263 12.2852 0.823415 12.5974 0.677321 12.8962C-0.146116 14.6095 -0.212522 16.0438 0.464822 17.4583C0.683962 17.9032 0.843337 18.129 1.28162 18.5606C1.73318 19.0188 1.9324 19.1583 2.45701 19.4106C3.26052 19.7958 3.65896 19.8888 4.4824 19.8821C5.74412 19.8821 6.56092 19.5368 7.47068 18.627C7.94217 18.1622 8.13474 17.9099 8.35388 17.4782C8.67263 16.8474 8.6992 16.6149 8.4867 16.3825C8.40037 16.2895 7.45076 15.6653 6.37498 14.988C5.2992 14.3173 3.83162 13.3942 3.12107 12.9493C1.69334 12.0528 1.44099 11.9599 1.12224 12.2122ZM4.58865 15.0477C6.18904 16.0638 7.50388 16.9138 7.50388 16.947C7.50388 17.0864 7.0324 17.7239 6.68045 18.0493C6.2156 18.4876 5.60467 18.7731 4.91404 18.8727C3.25388 19.1184 1.53396 17.9962 1.1156 16.4091C0.97615 15.8513 0.969509 15.3399 1.10232 14.6892C1.19529 14.2177 1.56052 13.2149 1.64021 13.2149C1.65349 13.2149 2.98162 14.0384 4.58865 15.0477Z" fill="#A4C7C6"/>
</g>
<g filter="url(#filter4_d_4_34)">
<path d="M6.57417 23.0164C5.78394 23.468 5.12652 24.152 4.72808 24.9355C4.08394 26.2238 4.15699 27.8375 4.9273 29.1391C5.25933 29.7035 6.05621 30.4738 6.60738 30.7527C7.42417 31.1777 7.70308 31.2441 8.66597 31.2441C9.67535 31.2441 10.1535 31.1246 11.1031 30.6332C12.2187 30.0621 12.5839 29.6504 12.398 29.1988C12.2851 28.9332 7.42417 22.9434 7.27144 22.8836C7.06558 22.8105 6.873 22.8437 6.57417 23.0164ZM9.03785 26.5426C10.1867 27.9504 11.1628 29.1656 11.216 29.232C11.3289 29.3914 11.2492 29.4578 10.5253 29.8098C8.97144 30.5668 7.5105 30.4141 6.40816 29.3914C5.09995 28.1762 4.92066 26.0777 6.00308 24.7762C6.2355 24.5039 6.83316 23.9727 6.90621 23.9727C6.93277 23.9727 7.88902 25.1281 9.03785 26.5426Z" fill="#FACD66"/>
</g>
</g>
<defs>
<filter id="filter0_d_4_34" x="2.66614" y="0.349243" width="14.2874" height="15.4594" filterUnits="userSpaceOnUse" color-interpolation-filters="sRGB">
<feFlood flood-opacity="0" result="BackgroundImageFix"/>
<feColorMatrix in="SourceAlpha" type="matrix" values="0 0 0 0 0 0 0 0 0 0 0 0 0 0 0 0 0 0 127 0" result="hardAlpha"/>
<feOffset dy="1"/>
<feComposite in2="hardAlpha" operator="out"/>
<feColorMatrix type="matrix" values="0 0 0 0 0.980392 0 0 0 0 0.803922 0 0 0 0 0.4 0 0 0 0.25 0"/>
<feBlend mode="normal" in2="BackgroundImageFix" result="effect1_dropShadow_4_34"/>
<feBlend mode="normal" in="SourceGraphic" in2="effect1_dropShadow_4_34" result="shape"/>
</filter>
<filter id="filter1_d_4_34" x="8.70435" y="11.7052" width="25.2902" height="22.923" filterUnits="userSpaceOnUse" color-interpolation-filters="sRGB">
<feFlood flood-opacity="0" result="BackgroundImageFix"/>
<feColorMatrix in="SourceAlpha" type="matrix" values="0 0 0 0 0 0 0 0 0 0 0 0 0 0 0 0 0 0 127 0" result="hardAlpha"/>
<feOffset dy="1"/>
<feComposite in2="hardAlpha" operator="out"/>
<feColorMatrix type="matrix" values="0 0 0 0 0.643137 0 0 0 0 0.780392 0 0 0 0 0.776471 0 0 0 0.24 0"/>
<feBlend mode="normal" in2="BackgroundImageFix" result="effect1_dropShadow_4_34"/>
<feBlend mode="normal" in="SourceGraphic" in2="effect1_dropShadow_4_34" result="shape"/>
</filter>
<filter id="filter2_d_4_34" x="19.1582" y="13.7661" width="10.8317" height="11.853" filterUnits="userSpaceOnUse" color-interpolation-filters="sRGB">
<feFlood flood-opacity="0" result="BackgroundImageFix"/>
<feColorMatrix in="SourceAlpha" type="matrix" values="0 0 0 0 0 0 0 0 0 0 0 0 0 0 0 0 0 0 127 0" result="hardAlpha"/>
<feOffset dy="1"/>
<feComposite in2="hardAlpha" operator="out"/>
<feColorMatrix type="matrix" values="0 0 0 0 0.643137 0 0 0 0 0.780392 0 0 0 0 0.776471 0 0 0 0.25 0"/>
<feBlend mode="normal" in2="BackgroundImageFix" result="effect1_dropShadow_4_34"/>
<feBlend mode="normal" in="SourceGraphic" in2="effect1_dropShadow_4_34" result="shape"/>
</filter>
<filter id="filter3_d_4_34" x="0.00341797" y="12.0907" width="8.62061" height="8.79175" filterUnits="userSpaceOnUse" color-interpolation-filters="sRGB">
<feFlood flood-opacity="0" result="BackgroundImageFix"/>
<feColorMatrix in="SourceAlpha" type="matrix" values="0 0 0 0 0 0 0 0 0 0 0 0 0 0 0 0 0 0 127 0" result="hardAlpha"/>
<feOffset dy="1"/>
<feComposite in2="hardAlpha" operator="out"/>
<feColorMatrix type="matrix" values="0 0 0 0 0.643137 0 0 0 0 0.780392 0 0 0 0 0.776471 0 0 0 0.25 0"/>
<feBlend mode="normal" in2="BackgroundImageFix" result="effect1_dropShadow_4_34"/>
<feBlend mode="normal" in="SourceGraphic" in2="effect1_dropShadow_4_34" result="shape"/>
</filter>
<filter id="filter4_d_4_34" x="4.29236" y="22.8472" width="8.15179" height="9.39697" filterUnits="userSpaceOnUse" color-interpolation-filters="sRGB">
<feFlood flood-opacity="0" result="BackgroundImageFix"/>
<feColorMatrix in="SourceAlpha" type="matrix" values="0 0 0 0 0 0 0 0 0 0 0 0 0 0 0 0 0 0 127 0" result="hardAlpha"/>
<feOffset dy="1"/>
<feComposite in2="hardAlpha" operator="out"/>
<feColorMatrix type="matrix" values="0 0 0 0 0.980392 0 0 0 0 0.803922 0 0 0 0 0.4 0 0 0 0.25 0"/>
<feBlend mode="normal" in2="BackgroundImageFix" result="effect1_dropShadow_4_34"/>
<feBlend mode="normal" in="SourceGraphic" in2="effect1_dropShadow_4_34" result="shape"/>
</filter>
<clipPath id="clip0_4_34">
<rect width="34" height="34" fill="white"/>
</clipPath>
</defs>
</svg>
