<svg width="34" height="34" viewBox="0 0 34 34" fill="none" xmlns="http://www.w3.org/2000/svg">
<g clip-path="url(#clip0_1_2)">
<path d="M12.9492 1.01992C12.9492 1.0332 13.0688 1.87656 13.2148 2.89258C13.3609 3.90859 13.4805 4.77187 13.4805 4.80508C13.4805 4.84492 12.9492 4.12773 12.2984 3.21797L11.1164 1.56445L9.87461 1.54453L8.63281 1.53125V3.35742V5.18359L9.98086 5.8543C10.718 6.22617 11.3355 6.53828 11.3488 6.55156C11.3621 6.56484 11.1297 6.8039 10.8309 7.08281C10.1535 7.71367 9.71523 8.29805 9.30352 9.10156C8.12148 11.3926 7.94883 14.4008 8.79883 17.7941C8.91836 18.2922 9.05117 18.7703 9.08438 18.8633C9.13086 18.9895 9.11094 19.0957 8.99805 19.3281C8.61289 20.1051 8.44023 21.2672 8.55313 22.3031C8.62617 22.9207 8.79883 23.7641 8.86524 23.8371C8.87852 23.8504 9.31016 23.525 9.82813 23.1199C10.3461 22.7082 10.8043 22.3629 10.8508 22.343C10.9039 22.323 11.0633 22.4758 11.2426 22.7281C11.4086 22.9605 11.7473 23.3789 12.0063 23.6445L12.4645 24.1426L11.7605 25.3711C10.8109 27.0246 10.4391 27.5559 9.72852 28.2598C9.12422 28.8641 8.51328 29.2559 7.95547 29.4086L7.70313 29.475V27.8547V26.2344H3.85156H0V28.8043C0 30.2852 0.0332031 31.5668 0.0730469 31.8125C0.258984 32.9613 1.12227 34.0902 2.20469 34.6016C2.89531 34.927 3.51953 35.0332 4.38281 34.9734C7.11211 34.7941 9.44961 33.6785 11.3289 31.6598C12.4313 30.4645 13.3875 29.0434 14.4566 26.998C14.7688 26.3937 15.0477 25.9023 15.0809 25.9023C15.1141 25.9023 15.3531 25.9887 15.6188 26.0949C15.8844 26.2012 16.3758 26.3539 16.7078 26.4402L17.3188 26.593L16.7742 27.1707C15.9641 28.034 15.393 29.0965 14.9016 30.6437C14.543 31.7793 14.2773 33.3996 14.2773 34.4422V35L23.6273 34.9867L32.9707 34.9668L33.2695 34.8008C33.6016 34.6148 33.834 34.3094 33.9402 33.9109C34.0863 33.3863 33.9867 33.1871 31.2309 28.4988C28.9465 24.6273 28.641 24.0695 28.6941 23.9301C28.8203 23.598 28.7605 23.0469 28.5215 22.3363C28.3953 21.9512 28.2293 21.5527 28.1563 21.4531L28.0234 21.2672L28.2227 20.8289C29.232 18.5777 29.3051 15.8086 28.4152 13.4578C28.309 13.1656 28.2426 12.9066 28.2691 12.8801C28.3289 12.8336 29.3914 12.6145 30.2281 12.4883L30.7328 12.4086L30.6066 12.0434C30.5402 11.8441 30.4207 11.5785 30.3477 11.459C30.1883 11.2 29.6703 10.7086 29.3449 10.5094C28.7738 10.1641 27.5852 9.83203 26.8945 9.83203C26.5426 9.83203 26.4629 9.7789 26.0645 9.27422C24.577 7.38828 22.359 5.78125 20.307 5.09062C19.2246 4.73203 18.5738 4.62578 17.3852 4.62578C16.8074 4.61914 16.3359 4.60586 16.3359 4.59258C16.3359 4.58593 16.575 4.17422 16.8672 3.68945L17.3984 2.80625V1.90312V0.999999H15.1738C13.952 0.999999 12.9492 1.01328 12.9492 1.01992ZM16.3227 2.275C16.3426 2.41445 16.1566 2.77304 15.6121 3.68281C14.9746 4.73867 14.7289 5.06406 14.6359 4.96445C14.6094 4.93789 14.2109 2.31484 14.2109 2.16211C14.2109 2.06914 14.3438 2.0625 15.2602 2.07578L16.3027 2.0957L16.3227 2.275ZM11.6609 4.19414C12.7301 5.68828 12.8098 5.85429 12.4844 5.84765C12.4313 5.84101 11.7871 5.53554 11.0566 5.16367L9.72852 4.48633L9.70859 3.56992L9.68867 2.65352L10.1402 2.67344L10.5852 2.69336L11.6609 4.19414ZM18.9125 5.81445C19.643 5.9539 20.1676 6.1332 20.9844 6.51836C21.8211 6.9168 22.1465 7.11601 22.9832 7.75351C23.5609 8.19179 25.168 9.75898 25.168 9.87851C25.168 9.91172 24.9289 9.99805 24.6434 10.0777C24.3512 10.1574 23.6805 10.3965 23.1426 10.6023C22.6113 10.8082 22.1664 10.9676 22.1531 10.9543C22.1398 10.941 22.0004 10.7152 21.8344 10.4562C21.6617 10.1906 21.5023 9.96484 21.4625 9.94492C21.4094 9.90508 20.5859 10.4629 20.5859 10.5426C20.5859 10.5559 20.7055 10.7484 20.8516 10.9609C20.9977 11.1734 21.1172 11.3793 21.1172 11.4059C21.1105 11.4324 20.4332 11.791 19.6031 12.2027C18.0293 12.9797 16.1367 14.0156 14.6094 14.932L13.7129 15.4766L13.6 15.2508C12.6703 13.4445 12.4113 11.034 12.9227 8.96875C13.102 8.23828 13.5203 7.08945 13.7395 6.7375L13.8656 6.525L14.4168 6.65117C16.2762 7.08945 17.9363 7.95937 19.4371 9.2875L19.9219 9.7125L20.3004 9.34726L20.6855 8.98203L20.5527 8.8293C20.2938 8.54375 19.218 7.67383 18.627 7.28867C17.8832 6.79726 17.1594 6.43203 16.3027 6.10664C15.7383 5.89414 15.6652 5.85429 15.8113 5.81445C16.5152 5.63515 17.9695 5.63515 18.9125 5.81445ZM12.0859 7.93945C11.2824 10.4629 11.4152 12.9531 12.491 15.4301C12.6305 15.7555 12.7301 16.0543 12.7102 16.0875C12.6902 16.1207 12.325 16.3797 11.9 16.6652C11.475 16.9508 10.8707 17.3824 10.5586 17.6215C10.1867 17.9137 9.98086 18.0332 9.9543 17.9801C9.92774 17.9336 9.84805 17.6281 9.775 17.3027C8.87188 13.4047 9.3832 10.1773 11.216 8.21172C11.4949 7.91289 12.2254 7.28867 12.2586 7.32187C12.2719 7.33516 12.1922 7.61406 12.0859 7.93945ZM27.4789 10.9941C28.0234 11.107 28.7672 11.3859 28.8867 11.5254C28.9398 11.5918 28.8934 11.6184 28.6742 11.6516C26.9676 11.9172 23.468 13.1723 21.0375 14.3875C17.9629 15.9215 14.2309 18.3254 10.8242 20.9551C10.4391 21.2539 10.0074 21.5793 9.86797 21.6855L9.60899 21.8848L9.64883 21.2539C9.68867 20.5766 9.86797 19.9391 10.127 19.5273C10.4457 19.0227 11.4152 18.2789 13.5801 16.8844C16.9668 14.7062 21.3031 12.4086 23.7734 11.4855C25.3207 10.9078 26.35 10.775 27.4789 10.9941ZM27.3461 13.6836C27.8176 14.8789 27.9902 15.9281 27.9371 17.223C27.8906 18.425 27.6781 19.3746 27.2332 20.4039L27.1004 20.7227H26.4496C25.9051 20.7227 25.7457 20.6961 25.4668 20.5633C25.075 20.384 24.7762 20.0984 24.7563 19.8992C24.7363 19.5937 24.7828 19.4941 25.1082 19.1488C25.2875 18.9562 25.5066 18.6574 25.5797 18.4848C25.7523 18.1062 25.7789 17.4156 25.6395 17.0703C25.2012 15.9879 24.0324 15.4965 23.0098 15.968C22.7973 16.0609 22.5715 16.1406 22.4984 16.1406C22.3922 16.1406 21.8211 15.7621 21.4891 15.4699C21.3563 15.3504 24.1055 14.1484 25.8852 13.5508C26.5293 13.3316 27.0805 13.1523 27.1004 13.1523C27.1203 13.1523 27.2332 13.3914 27.3461 13.6836ZM21.0375 16.4926C21.3895 16.7648 21.7813 17.0371 21.9074 17.0969C22.2461 17.2762 22.8238 17.2496 23.2488 17.0305C23.7402 16.7848 24.1121 16.8312 24.4242 17.1699C24.6367 17.4023 24.65 17.4422 24.6234 17.7809C24.5969 18.1062 24.5637 18.1727 24.2582 18.4848C23.7867 18.9629 23.6805 19.202 23.6805 19.7598C23.6805 20.1184 23.7137 20.291 23.8266 20.5035C23.9926 20.8156 24.3777 21.2207 24.6566 21.3602C24.7563 21.4133 24.8359 21.4797 24.8359 21.5062C24.8359 21.5328 24.557 21.7187 24.225 21.918C22.3457 23.0137 20.6059 24.1359 19.3375 25.059L18.5207 25.65L18.1422 25.6035C16.2164 25.3777 14.3969 24.4945 13.0223 23.1133C12.4977 22.5887 11.8203 21.7387 11.8203 21.6059C11.827 21.5461 13.4074 20.3773 14.8418 19.3812C16.1301 18.4914 18.1355 17.2164 19.1914 16.6254C20.2738 16.0145 20.2805 16.0145 20.3402 16.0078C20.3668 16.0078 20.6855 16.227 21.0375 16.4926ZM27.1734 21.9645C27.293 22.1105 27.6914 23.2262 27.6914 23.4254C27.6914 23.7242 27.4125 23.8969 25.9316 24.5277C22.3988 26.0418 19.3043 27.5359 17.6043 28.5586C17.1262 28.8441 16.7344 29.0633 16.7344 29.05C16.7344 28.9039 17.3055 28.2066 17.8699 27.6621C19.3773 26.2211 21.8078 24.5742 25.998 22.157C26.5891 21.8184 26.9875 21.752 27.1734 21.9645ZM13.693 25.0855C13.8855 25.2184 14.0582 25.3379 14.0715 25.3445C14.1047 25.3711 13.0688 27.3367 12.6504 28.0273C12.1723 28.8176 11.641 29.5812 11.1496 30.1855C10.6051 30.8629 9.47617 31.9254 8.87188 32.3371C8.37383 32.6824 7.10547 33.3598 7.05234 33.3133C7.0457 33.3 7.12539 33.1141 7.23164 32.8949C7.49063 32.3902 7.61016 31.9187 7.66992 31.175L7.71641 30.5707L8.02852 30.4977C8.88516 30.2984 9.62891 29.8801 10.3461 29.1961C11.1563 28.4258 11.7074 27.6555 12.7102 25.8824C13.0422 25.3113 13.3145 24.8398 13.3277 24.8398C13.341 24.8398 13.507 24.9527 13.693 25.0855ZM28.6078 26.2078C28.9797 26.832 29.2852 27.3766 29.2984 27.4164C29.3184 27.4895 27.4988 29.9465 27.4191 29.9465C27.3461 29.9531 25.6063 27.2039 25.6063 27.0844C25.5996 27.0246 25.9117 26.593 26.2969 26.1281C26.9145 25.3777 27.0406 25.2648 27.3926 25.1055C27.6914 24.966 27.8109 24.9395 27.8641 24.9992C27.9039 25.0391 28.2426 25.5836 28.6078 26.2078ZM24.5902 26.4469C24.5172 26.5332 23.9992 27.1508 23.4414 27.8148C22.8836 28.4855 22.4055 29.0102 22.3789 28.977C22.3523 28.9504 22.173 28.6383 21.9871 28.2863L21.6484 27.6488L21.9605 27.5094C22.1398 27.4363 22.8039 27.1309 23.4414 26.8387C24.0789 26.5398 24.6301 26.3008 24.6633 26.3008C24.6965 26.3008 24.6633 26.3672 24.5902 26.4469ZM6.57422 27.8613V28.4258H3.81836H1.0625V27.9078C1.0625 27.6223 1.08242 27.3633 1.10898 27.3434C1.12891 27.3168 2.3707 27.2969 3.86484 27.2969H6.57422V27.8613ZM26.609 31.0289C26.4031 31.3344 24.7961 33.3996 24.7695 33.3996C24.743 33.4062 23.1359 30.4578 22.9965 30.1523C22.9832 30.1324 23.3816 29.6344 23.8797 29.0367L24.7762 27.9477L25.7324 29.4352C26.5359 30.6836 26.6754 30.9359 26.609 31.0289ZM21.2301 29.216L21.6418 29.9863L20.7453 31.0687C20.2473 31.6598 19.8223 32.1445 19.8023 32.1445C19.7625 32.1445 18.3945 29.4684 18.3945 29.3953C18.3945 29.3687 19.7691 28.6051 20.3535 28.2996L20.6191 28.1668L20.7188 28.3062C20.7719 28.3859 21.0043 28.7977 21.2301 29.216ZM31.4301 31.009C32.2203 32.357 32.8711 33.5191 32.8711 33.5855C32.8711 33.8512 32.7715 33.8711 31.3039 33.8711H29.8961L28.973 32.4367C28.4684 31.6531 28.0566 30.9957 28.0566 30.9891C28.0566 30.9426 29.9094 28.5586 29.9492 28.5586C29.9691 28.5586 30.6398 29.6609 31.4301 31.009ZM6.57422 30.4977C6.57422 31.9254 6.42148 32.4102 5.78398 33.0676C5.39219 33.466 4.75469 33.7914 4.2168 33.8645C2.71602 34.0703 1.34805 33.0277 1.12891 31.5137C1.05586 30.9891 1.04258 29.6012 1.10898 29.5348C1.12891 29.5082 2.3707 29.4883 3.86484 29.4883H6.57422V30.4977ZM18.7199 33.4992L18.4277 33.8645L16.9203 33.8711C15.5191 33.8711 15.4063 33.8645 15.4063 33.7516C15.4063 33.4992 15.6121 32.2773 15.7449 31.7129C15.9109 31.0422 15.9109 31.0355 16.8938 30.3316L17.425 29.9465L18.2219 31.5336L19.0188 33.1273L18.7199 33.4992ZM23.0031 32.5031C23.3949 33.227 23.7004 33.8312 23.6871 33.8512C23.6738 33.8645 22.8105 33.8645 21.768 33.8578L19.8688 33.8379L20.5328 33.041C21.9008 31.4008 22.193 31.0687 22.2461 31.1285C22.2727 31.1551 22.6113 31.7727 23.0031 32.5031ZM27.9902 32.9414L28.5613 33.8379L27.8574 33.8578C27.4723 33.8645 26.8613 33.8645 26.5027 33.8578L25.852 33.8379L26.5758 32.8883C26.9809 32.3637 27.3328 31.9586 27.3594 31.9918C27.3926 32.0184 27.6715 32.45 27.9902 32.9414Z" fill="#A4C7C6" fill-opacity="0.25"/>
<path d="M12.9492 0.019919C12.9492 0.0332003 13.0688 0.876561 13.2148 1.89258C13.3609 2.90859 13.4805 3.77187 13.4805 3.80508C13.4805 3.84492 12.9492 3.12773 12.2984 2.21797L11.1164 0.564451L9.87461 0.544528L8.63281 0.531247V2.35742V4.18359L9.98086 4.8543C10.718 5.22617 11.3355 5.53828 11.3488 5.55156C11.3621 5.56484 11.1297 5.8039 10.8309 6.08281C10.1535 6.71367 9.71523 7.29805 9.30352 8.10156C8.12148 10.3926 7.94883 13.4008 8.79883 16.7941C8.91836 17.2922 9.05117 17.7703 9.08438 17.8633C9.13086 17.9895 9.11094 18.0957 8.99805 18.3281C8.61289 19.1051 8.44023 20.2672 8.55313 21.3031C8.62617 21.9207 8.79883 22.7641 8.86524 22.8371C8.87852 22.8504 9.31016 22.525 9.82813 22.1199C10.3461 21.7082 10.8043 21.3629 10.8508 21.343C10.9039 21.323 11.0633 21.4758 11.2426 21.7281C11.4086 21.9605 11.7473 22.3789 12.0063 22.6445L12.4645 23.1426L11.7605 24.3711C10.8109 26.0246 10.4391 26.5559 9.72852 27.2598C9.12422 27.8641 8.51328 28.2559 7.95547 28.4086L7.70313 28.475V26.8547V25.2344H3.85156H0V27.8043C0 29.2852 0.0332031 30.5668 0.0730469 30.8125C0.258984 31.9613 1.12227 33.0902 2.20469 33.6016C2.89531 33.927 3.51953 34.0332 4.38281 33.9734C7.11211 33.7941 9.44961 32.6785 11.3289 30.6598C12.4313 29.4645 13.3875 28.0434 14.4566 25.998C14.7688 25.3937 15.0477 24.9023 15.0809 24.9023C15.1141 24.9023 15.3531 24.9887 15.6188 25.0949C15.8844 25.2012 16.3758 25.3539 16.7078 25.4402L17.3188 25.593L16.7742 26.1707C15.9641 27.034 15.393 28.0965 14.9016 29.6437C14.543 30.7793 14.2773 32.3996 14.2773 33.4422V34L23.6273 33.9867L32.9707 33.9668L33.2695 33.8008C33.6016 33.6148 33.834 33.3094 33.9402 32.9109C34.0863 32.3863 33.9867 32.1871 31.2309 27.4988C28.9465 23.6273 28.641 23.0695 28.6941 22.9301C28.8203 22.598 28.7605 22.0469 28.5215 21.3363C28.3953 20.9512 28.2293 20.5527 28.1563 20.4531L28.0234 20.2672L28.2227 19.8289C29.232 17.5777 29.3051 14.8086 28.4152 12.4578C28.309 12.1656 28.2426 11.9066 28.2691 11.8801C28.3289 11.8336 29.3914 11.6145 30.2281 11.4883L30.7328 11.4086L30.6066 11.0434C30.5402 10.8441 30.4207 10.5785 30.3477 10.459C30.1883 10.2 29.6703 9.70859 29.3449 9.50937C28.7738 9.16406 27.5852 8.83203 26.8945 8.83203C26.5426 8.83203 26.4629 8.7789 26.0645 8.27422C24.577 6.38828 22.359 4.78125 20.307 4.09062C19.2246 3.73203 18.5738 3.62578 17.3852 3.62578C16.8074 3.61914 16.3359 3.60586 16.3359 3.59258C16.3359 3.58593 16.575 3.17422 16.8672 2.68945L17.3984 1.80625V0.903122V-1.01328e-06H15.1738C13.952 -1.01328e-06 12.9492 0.0132784 12.9492 0.019919ZM16.3227 1.275C16.3426 1.41445 16.1566 1.77304 15.6121 2.68281C14.9746 3.73867 14.7289 4.06406 14.6359 3.96445C14.6094 3.93789 14.2109 1.31484 14.2109 1.16211C14.2109 1.06914 14.3438 1.0625 15.2602 1.07578L16.3027 1.0957L16.3227 1.275ZM11.6609 3.19414C12.7301 4.68828 12.8098 4.85429 12.4844 4.84765C12.4313 4.84101 11.7871 4.53554 11.0566 4.16367L9.72852 3.48633L9.70859 2.56992L9.68867 1.65352L10.1402 1.67344L10.5852 1.69336L11.6609 3.19414ZM18.9125 4.81445C19.643 4.9539 20.1676 5.1332 20.9844 5.51836C21.8211 5.9168 22.1465 6.11601 22.9832 6.75351C23.5609 7.19179 25.168 8.75898 25.168 8.87851C25.168 8.91172 24.9289 8.99805 24.6434 9.07773C24.3512 9.15742 23.6805 9.39648 23.1426 9.60234C22.6113 9.8082 22.1664 9.96758 22.1531 9.9543C22.1398 9.94101 22.0004 9.71523 21.8344 9.45625C21.6617 9.19062 21.5023 8.96484 21.4625 8.94492C21.4094 8.90508 20.5859 9.46289 20.5859 9.54258C20.5859 9.55586 20.7055 9.74844 20.8516 9.96094C20.9977 10.1734 21.1172 10.3793 21.1172 10.4059C21.1105 10.4324 20.4332 10.791 19.6031 11.2027C18.0293 11.9797 16.1367 13.0156 14.6094 13.932L13.7129 14.4766L13.6 14.2508C12.6703 12.4445 12.4113 10.034 12.9227 7.96875C13.102 7.23828 13.5203 6.08945 13.7395 5.7375L13.8656 5.525L14.4168 5.65117C16.2762 6.08945 17.9363 6.95937 19.4371 8.2875L19.9219 8.7125L20.3004 8.34726L20.6855 7.98203L20.5527 7.8293C20.2938 7.54375 19.218 6.67383 18.627 6.28867C17.8832 5.79726 17.1594 5.43203 16.3027 5.10664C15.7383 4.89414 15.6652 4.85429 15.8113 4.81445C16.5152 4.63515 17.9695 4.63515 18.9125 4.81445ZM12.0859 6.93945C11.2824 9.46289 11.4152 11.9531 12.491 14.4301C12.6305 14.7555 12.7301 15.0543 12.7102 15.0875C12.6902 15.1207 12.325 15.3797 11.9 15.6652C11.475 15.9508 10.8707 16.3824 10.5586 16.6215C10.1867 16.9137 9.98086 17.0332 9.9543 16.9801C9.92774 16.9336 9.84805 16.6281 9.775 16.3027C8.87188 12.4047 9.3832 9.17734 11.216 7.21172C11.4949 6.91289 12.2254 6.28867 12.2586 6.32187C12.2719 6.33516 12.1922 6.61406 12.0859 6.93945ZM27.4789 9.99414C28.0234 10.107 28.7672 10.3859 28.8867 10.5254C28.9398 10.5918 28.8934 10.6184 28.6742 10.6516C26.9676 10.9172 23.468 12.1723 21.0375 13.3875C17.9629 14.9215 14.2309 17.3254 10.8242 19.9551C10.4391 20.2539 10.0074 20.5793 9.86797 20.6855L9.60899 20.8848L9.64883 20.2539C9.68867 19.5766 9.86797 18.9391 10.127 18.5273C10.4457 18.0227 11.4152 17.2789 13.5801 15.8844C16.9668 13.7062 21.3031 11.4086 23.7734 10.4855C25.3207 9.90781 26.35 9.775 27.4789 9.99414ZM27.3461 12.6836C27.8176 13.8789 27.9902 14.9281 27.9371 16.223C27.8906 17.425 27.6781 18.3746 27.2332 19.4039L27.1004 19.7227H26.4496C25.9051 19.7227 25.7457 19.6961 25.4668 19.5633C25.075 19.384 24.7762 19.0984 24.7563 18.8992C24.7363 18.5937 24.7828 18.4941 25.1082 18.1488C25.2875 17.9562 25.5066 17.6574 25.5797 17.4848C25.7523 17.1062 25.7789 16.4156 25.6395 16.0703C25.2012 14.9879 24.0324 14.4965 23.0098 14.968C22.7973 15.0609 22.5715 15.1406 22.4984 15.1406C22.3922 15.1406 21.8211 14.7621 21.4891 14.4699C21.3563 14.3504 24.1055 13.1484 25.8852 12.5508C26.5293 12.3316 27.0805 12.1523 27.1004 12.1523C27.1203 12.1523 27.2332 12.3914 27.3461 12.6836ZM21.0375 15.4926C21.3895 15.7648 21.7813 16.0371 21.9074 16.0969C22.2461 16.2762 22.8238 16.2496 23.2488 16.0305C23.7402 15.7848 24.1121 15.8312 24.4242 16.1699C24.6367 16.4023 24.65 16.4422 24.6234 16.7809C24.5969 17.1062 24.5637 17.1727 24.2582 17.4848C23.7867 17.9629 23.6805 18.202 23.6805 18.7598C23.6805 19.1184 23.7137 19.291 23.8266 19.5035C23.9926 19.8156 24.3777 20.2207 24.6566 20.3602C24.7563 20.4133 24.8359 20.4797 24.8359 20.5062C24.8359 20.5328 24.557 20.7187 24.225 20.918C22.3457 22.0137 20.6059 23.1359 19.3375 24.059L18.5207 24.65L18.1422 24.6035C16.2164 24.3777 14.3969 23.4945 13.0223 22.1133C12.4977 21.5887 11.8203 20.7387 11.8203 20.6059C11.827 20.5461 13.4074 19.3773 14.8418 18.3812C16.1301 17.4914 18.1355 16.2164 19.1914 15.6254C20.2738 15.0145 20.2805 15.0145 20.3402 15.0078C20.3668 15.0078 20.6855 15.227 21.0375 15.4926ZM27.1734 20.9645C27.293 21.1105 27.6914 22.2262 27.6914 22.4254C27.6914 22.7242 27.4125 22.8969 25.9316 23.5277C22.3988 25.0418 19.3043 26.5359 17.6043 27.5586C17.1262 27.8441 16.7344 28.0633 16.7344 28.05C16.7344 27.9039 17.3055 27.2066 17.8699 26.6621C19.3773 25.2211 21.8078 23.5742 25.998 21.157C26.5891 20.8184 26.9875 20.752 27.1734 20.9645ZM13.693 24.0855C13.8855 24.2184 14.0582 24.3379 14.0715 24.3445C14.1047 24.3711 13.0688 26.3367 12.6504 27.0273C12.1723 27.8176 11.641 28.5812 11.1496 29.1855C10.6051 29.8629 9.47617 30.9254 8.87188 31.3371C8.37383 31.6824 7.10547 32.3598 7.05234 32.3133C7.0457 32.3 7.12539 32.1141 7.23164 31.8949C7.49063 31.3902 7.61016 30.9187 7.66992 30.175L7.71641 29.5707L8.02852 29.4977C8.88516 29.2984 9.62891 28.8801 10.3461 28.1961C11.1563 27.4258 11.7074 26.6555 12.7102 24.8824C13.0422 24.3113 13.3145 23.8398 13.3277 23.8398C13.341 23.8398 13.507 23.9527 13.693 24.0855ZM28.6078 25.2078C28.9797 25.832 29.2852 26.3766 29.2984 26.4164C29.3184 26.4895 27.4988 28.9465 27.4191 28.9465C27.3461 28.9531 25.6063 26.2039 25.6063 26.0844C25.5996 26.0246 25.9117 25.593 26.2969 25.1281C26.9145 24.3777 27.0406 24.2648 27.3926 24.1055C27.6914 23.966 27.8109 23.9395 27.8641 23.9992C27.9039 24.0391 28.2426 24.5836 28.6078 25.2078ZM24.5902 25.4469C24.5172 25.5332 23.9992 26.1508 23.4414 26.8148C22.8836 27.4855 22.4055 28.0102 22.3789 27.977C22.3523 27.9504 22.173 27.6383 21.9871 27.2863L21.6484 26.6488L21.9605 26.5094C22.1398 26.4363 22.8039 26.1309 23.4414 25.8387C24.0789 25.5398 24.6301 25.3008 24.6633 25.3008C24.6965 25.3008 24.6633 25.3672 24.5902 25.4469ZM6.57422 26.8613V27.4258H3.81836H1.0625V26.9078C1.0625 26.6223 1.08242 26.3633 1.10898 26.3434C1.12891 26.3168 2.3707 26.2969 3.86484 26.2969H6.57422V26.8613ZM26.609 30.0289C26.4031 30.3344 24.7961 32.3996 24.7695 32.3996C24.743 32.4062 23.1359 29.4578 22.9965 29.1523C22.9832 29.1324 23.3816 28.6344 23.8797 28.0367L24.7762 26.9477L25.7324 28.4352C26.5359 29.6836 26.6754 29.9359 26.609 30.0289ZM21.2301 28.216L21.6418 28.9863L20.7453 30.0687C20.2473 30.6598 19.8223 31.1445 19.8023 31.1445C19.7625 31.1445 18.3945 28.4684 18.3945 28.3953C18.3945 28.3687 19.7691 27.6051 20.3535 27.2996L20.6191 27.1668L20.7188 27.3062C20.7719 27.3859 21.0043 27.7977 21.2301 28.216ZM31.4301 30.009C32.2203 31.357 32.8711 32.5191 32.8711 32.5855C32.8711 32.8512 32.7715 32.8711 31.3039 32.8711H29.8961L28.973 31.4367C28.4684 30.6531 28.0566 29.9957 28.0566 29.9891C28.0566 29.9426 29.9094 27.5586 29.9492 27.5586C29.9691 27.5586 30.6398 28.6609 31.4301 30.009ZM6.57422 29.4977C6.57422 30.9254 6.42148 31.4102 5.78398 32.0676C5.39219 32.466 4.75469 32.7914 4.2168 32.8645C2.71602 33.0703 1.34805 32.0277 1.12891 30.5137C1.05586 29.9891 1.04258 28.6012 1.10898 28.5348C1.12891 28.5082 2.3707 28.4883 3.86484 28.4883H6.57422V29.4977ZM18.7199 32.4992L18.4277 32.8645L16.9203 32.8711C15.5191 32.8711 15.4063 32.8645 15.4063 32.7516C15.4063 32.4992 15.6121 31.2773 15.7449 30.7129C15.9109 30.0422 15.9109 30.0355 16.8938 29.3316L17.425 28.9465L18.2219 30.5336L19.0188 32.1273L18.7199 32.4992ZM23.0031 31.5031C23.3949 32.227 23.7004 32.8312 23.6871 32.8512C23.6738 32.8645 22.8105 32.8645 21.768 32.8578L19.8688 32.8379L20.5328 32.041C21.9008 30.4008 22.193 30.0687 22.2461 30.1285C22.2727 30.1551 22.6113 30.7727 23.0031 31.5031ZM27.9902 31.9414L28.5613 32.8379L27.8574 32.8578C27.4723 32.8645 26.8613 32.8645 26.5027 32.8578L25.852 32.8379L26.5758 31.8883C26.9809 31.3637 27.3328 30.9586 27.3594 30.9918C27.3926 31.0184 27.6715 31.45 27.9902 31.9414Z" fill="#A4C7C6"/>
<path d="M0 20.2141C0 21.1504 0.152734 21.6152 0.697266 22.3059C1.02266 22.7176 1.12227 23.0562 1.12891 23.6871V24.1055H1.66016H2.19141V23.6074C2.19141 22.7309 2.01875 22.1996 1.56055 21.6484C1.18867 21.2035 1.12227 21.0242 1.08242 20.3469L1.04258 19.7227H0.524609H0V20.2141Z" fill="#FACD66"/>
<path d="M2.20471 20.4465C2.24456 21.2832 2.38401 21.6617 2.88206 22.2992C3.22073 22.7375 3.32034 23.0363 3.32034 23.6539V24.1055H3.85159H4.38284V23.6074C4.38284 22.7309 4.21018 22.1996 3.75198 21.6484C3.3801 21.2035 3.3137 21.0242 3.27385 20.3469L3.23401 19.7227H2.70276H2.17151L2.20471 20.4465Z" fill="#FACD66"/>
<path d="M4.39612 20.4465C4.43596 21.2766 4.5887 21.7016 5.05354 22.2527C5.37893 22.6445 5.51174 23.043 5.51174 23.6539V24.1055H6.04299H6.57424V23.5543C6.57424 22.6777 6.39495 22.193 5.81721 21.4691C5.56487 21.157 5.44534 20.7254 5.44534 20.1211V19.7227H4.90745H4.36292L4.39612 20.4465Z" fill="#FACD66"/>
<path d="M-0.398438 20.2141C-0.398438 21.1504 -0.245703 21.6152 0.298828 22.3059C0.624219 22.7176 0.723828 23.0562 0.730469 23.6871V24.1055H1.26172H1.79297V23.6074C1.79297 22.7309 1.62031 22.1996 1.16211 21.6484C0.790234 21.2035 0.723828 21.0242 0.683984 20.3469L0.644141 19.7227H0.126172H-0.398438V20.2141Z" fill="#FACD66" fill-opacity="0.13"/>
<path d="M1.80624 20.4465C1.84609 21.2832 1.98554 21.6617 2.48359 22.2992C2.82226 22.7375 2.92187 23.0363 2.92187 23.6539V24.1055H3.45312H3.98437V23.6074C3.98437 22.7309 3.81171 22.1996 3.35351 21.6484C2.98163 21.2035 2.91523 21.0242 2.87538 20.3469L2.83554 19.7227H2.30429H1.77304L1.80624 20.4465Z" fill="#FACD66" fill-opacity="0.13"/>
<path d="M3.99765 20.4465C4.03749 21.2766 4.19023 21.7016 4.65507 22.2527C4.98046 22.6445 5.11328 23.043 5.11328 23.6539V24.1055H5.64453H6.17578V23.5543C6.17578 22.6777 5.99648 22.193 5.41874 21.4691C5.1664 21.157 5.04687 20.7254 5.04687 20.1211V19.7227H4.50898H3.96445L3.99765 20.4465Z" fill="#FACD66" fill-opacity="0.13"/>
</g>
<defs>
<clipPath id="clip0_1_2">
<rect width="34" height="34" fill="white"/>
</clipPath>
</defs>
</svg>
