<?xml version="1.0" standalone="no"?>
<!DOCTYPE svg PUBLIC "-//W3C//DTD SVG 20010904//EN"
 "http://www.w3.org/TR/2001/REC-SVG-20010904/DTD/svg10.dtd">
<svg version="1.0" xmlns="http://www.w3.org/2000/svg"
 width="512.000000pt" height="512.000000pt" viewBox="0 0 512.000000 512.000000"
 preserveAspectRatio="xMidYMid meet">

<g transform="translate(0.000000,512.000000) scale(0.100000,-0.100000)"
fill="#000000" stroke="none">
<path d="M2376 4910 c-354 -45 -646 -203 -856 -467 -68 -84 -124 -179 -115
-193 4 -6 -6 -10 -22 -10 -36 0 -1352 -206 -1358 -212 -15 -15 416 -230 625
-313 387 -152 689 -221 1025 -232 254 -8 438 14 626 77 175 58 135 21 641 604
254 292 470 540 480 552 l19 21 -138 45 c-163 54 -310 91 -448 113 -120 19
-383 27 -479 15z"/>
<path d="M3996 4355 c-20 -52 -36 -97 -36 -101 0 -3 -99 -261 -220 -573 -121
-313 -220 -582 -220 -599 0 -17 14 -70 31 -119 158 -446 589 -854 1215 -1151
140 -66 319 -142 335 -142 4 0 -127 230 -291 511 l-298 512 59 74 c109 137
177 271 221 437 30 113 30 298 0 411 -74 277 -284 528 -636 762 -60 40 -113
73 -117 73 -3 0 -23 -43 -43 -95z"/>
<path d="M1459 3050 c-394 -67 -724 -346 -852 -721 -75 -217 -75 -481 0 -698
127 -371 449 -648 833 -717 153 -27 383 -13 519 33 85 28 186 75 253 119 37
24 65 37 62 31 -2 -7 193 -208 433 -448 457 -455 450 -449 532 -449 42 1 106
35 135 73 33 42 44 117 26 173 -10 31 -100 127 -447 475 l-434 436 41 66 c145
231 191 549 120 826 -102 400 -426 708 -832 791 -100 21 -295 26 -389 10z
m349 -276 c157 -33 280 -101 403 -224 130 -129 205 -284 231 -480 36 -272 -95
-576 -321 -743 -74 -55 -221 -122 -311 -142 -139 -31 -322 -19 -455 29 -323
117 -535 421 -535 766 0 307 160 574 430 718 174 93 355 118 558 76z"/>
</g>
</svg>
