<?xml version="1.0" encoding="UTF-8"?>
<svg id="Layer_1" data-name="Layer 1" xmlns="http://www.w3.org/2000/svg" viewBox="0 0 447 447">
  <defs>
    <style>
      .cls-1 {
        fill: #fafcfc;
      }

      .cls-1, .cls-2, .cls-3 {
        stroke: #757575;
        stroke-miterlimit: 10;
      }

      .cls-2 {
        fill: #facd66;
      }

      .cls-3 {
        fill: #a4c7c6;
      }
    </style>
  </defs>
  <path class="cls-3" d="M215.3,8.7l-.3,8.3-11,1.1c-38.7,3.9-74.6,18-106,41.7-10.3,7.8-30.4,27.9-38.2,38.2-23.7,31.4-37.8,67.3-41.7,106l-1.1,11-8.3,.3-8.2,.3v15.8l8.3,.3,8.2,.3,1.1,11c3.9,38.7,18,74.6,41.7,106,7.8,10.3,27.9,30.4,38.2,38.2,31.4,23.7,67.3,37.8,106,41.7l11,1.1,.3,8.2,.3,8.3h15.8l.3-8.2,.3-8.3,11-1.1c38.7-3.9,74.6-18,106-41.7,10.3-7.8,30.4-27.9,38.2-38.2,23.7-31.4,37.8-67.3,41.7-106l1.1-11,8.3-.3,8.2-.3v-15.8l-8.2-.3-8.3-.3-1.1-11c-3.9-38.7-18-74.6-41.7-106-7.8-10.3-27.9-30.4-38.2-38.2-31.4-23.7-67.3-37.8-106-41.7l-11-1.1-.3-8.3-.3-8.2h-15.8l-.3,8.2Zm-16.15,94.2c9.6,4,15.6,4.8,31.2,4.4,12-.3,15.5-.8,20.5-2.7,12.6-4.7,15.7-5.4,20.2-4.2,4.9,1.3,9.7,5.1,12.1,9.5,1.3,2.5,1.7,6.6,2,21.3l.4,18.3h15.8v-4.1c0-2.9,.4-4,1.3-3.6,.6,.3,3.2,1.3,5.7,2.3s5.6,2.4,6.9,3.3l2.3,1.5-2.6,2.3c-4.8,4.1-25,9.3-48.6,12.5-12.7,1.7-65.3,1.7-78,0-23.6-3.2-43.8-8.4-48.6-12.5l-2.6-2.3,2.3-1.5c1.3-.9,4.4-2.3,6.9-3.3s5.1-2,5.8-2.3c.8-.4,1.2,.7,1.2,3.6v4.1h15.8l.4-18.3c.4-19.5,.9-21.6,6.1-26.5,5.9-5.6,13.2-6.1,23.5-1.8Zm4.65,78.7c20.7,1.3,48.1,.3,68-2.5l8.7-1.2v3.5c-.1,5-3.8,15.6-8,22.5-4.1,6.9-14.7,17.1-21.8,20.9-6.8,3.7-19,6.7-27.2,6.7s-20.4-3-27.2-6.7c-7.1-3.8-17.7-14-21.8-20.9-4.2-6.9-7.9-17.5-8-22.5v-3.5l8.8,1.2c4.8,.7,17.6,1.8,28.5,2.5Zm-43.8,30.6c3.2,5.9,11.2,15.1,17.7,20.1,6,4.7,6.1,4.9,20.5,33.6,7.9,15.8,14,28.6,13.5,28.5-.4-.2-12.4-9.4-26.4-20.3l-25.6-19.9,4.1-8.3c2.3-4.6,3.9-8.5,3.7-8.7-.3-.2-6.1-4.6-13-9.7s-12.9-9.6-13.4-10.1c-.8-.7,13.6-8.7,15.9-8.9,.6,0,1.9,1.7,3,3.7Zm138.6,.4c4.5,2.2,7.8,4.4,7.3,4.8-.5,.5-6.5,5-13.4,10.1s-12.7,9.5-13,9.7c-.2,.2,1.4,4.1,3.7,8.7l4.1,8.3-25.6,19.9c-14,10.9-26,20.1-26.4,20.3-.5,.1,5.6-12.7,13.5-28.5,14.4-28.7,14.5-28.9,20.5-33.6,6.5-5,14.5-14.2,17.7-20.1,1.1-2,2.3-3.7,2.7-3.7,.5,0,4.5,1.8,8.9,4.1Zm-79.5,35.5c3.8,.3,9.8,.1,13.3-.5,3.6-.6,6.6-.9,6.8-.7,.5,.5-15,31.6-15.7,31.6-.5,0-16-30.5-16-31.6,0-.3,1.1-.4,2.3,0,1.3,.3,5.5,.8,9.3,1.2Z"/>
  <path class="cls-2" d="M219.35,42.61v7.9h16v-7.8c0-4.3,.2-8.1,.5-8.3,.2-.3,4.2-.2,8.7,.3,44.5,4.1,85.1,23.2,116.8,54.8,31.6,31.7,50.7,72.3,54.8,116.8,.5,4.5,.6,8.5,.3,8.7-.2,.3-4,.5-8.3,.5h-7.8v16h7.8c4.3,0,8.1,.2,8.3,.5,.8,.7-.8,16-2.7,26-6.5,35.5-22.4,66.9-47.6,94.5l-6.8,7.4v-30.6c0-33-.6-39-5.4-50.8-7-17.2-21.5-32.5-37.3-39.4-2.4-1.1-4.3-2.2-4.3-2.5,.1-.3,6.2-5.1,13.6-10.6s14-10.5,14.6-11.2c.7-.9-4.4-3.9-20.2-11.8l-21.1-10.6,.7-3.2c.4-1.8,1-5.9,1.3-9.1l.6-5.9,6.5-2.2c12.2-4.1,20.4-9.3,24-15,2.5-4.1,2.6-10.9,.1-15.5-2.6-4.9-12.5-11.3-22.5-14.6l-8.4-2.7-.4-7.6c-.9-18.9-14.2-32.1-33.3-32.9-7.3-.3-8.8,0-17.5,3.4-9.4,3.8-9.7,3.8-23,3.8s-13.6,0-23-3.8c-8.7-3.4-10.2-3.7-17.5-3.4-19.1,.8-32.4,14-33.3,32.9l-.4,7.6-8.4,2.7c-10,3.3-19.9,9.7-22.5,14.6-2.5,4.6-2.4,11.4,.1,15.5,3.6,5.7,11.8,10.9,24,15l6.5,2.2,.6,5.9c.3,3.2,.9,7.3,1.3,9.1l.7,3.2-21.1,10.6c-15.8,7.9-20.9,10.9-20.2,11.8,.6,.7,7.2,5.7,14.6,11.2s13.5,10.3,13.6,10.6c0,.3-1.9,1.4-4.2,2.5-15.9,6.9-30.4,22.2-37.4,39.4-4.8,11.8-5.4,17.8-5.4,50.8v30.6l-6.7-7.4c-25.3-27.6-41.2-59-47.7-94.5-1.9-10-3.5-25.3-2.7-26,.2-.3,4-.5,8.3-.5h7.8v-16h-7.8c-4.3,0-8.1-.2-8.3-.5-.3-.2-.2-4.2,.3-8.7,4.1-44.5,23.2-85.1,54.8-116.8,31.6-31.5,72.2-50.6,116.5-54.8,4.4-.5,8.3-.6,8.8-.4,.4,.2,.7,3.9,.7,8.3Z"/>
  <path class="cls-1" d="M136.91,257.21c-.9,1.6,4,5.7,37.4,31.6l38.4,29.9v61.8h16v-61.8l38.4-29.9c31.8-24.7,38.2-30.1,37.5-31.5-1.5-2.8-1.1-2.9,3.4-.7,6.9,3.5,17.7,15.3,21.9,23.9,6.1,12.7,6.3,14.5,6.3,56v37.4l-8.8,6.2c-7.8,5.5-21.4,13.4-23.1,13.4-.3,0-.6-21.6-.6-48v-48h-17v103.9l-9.4,3c-5.1,1.7-13.8,3.9-19.3,5-10.1,2.1-28,4.1-28.8,3.2-.3-.2-.5-4-.5-8.3v-7.8h-16v7.8c0,4.3-.2,8.1-.5,8.3-.8,.9-18.7-1.1-28.8-3.2-5.5-1.1-14.2-3.3-19.3-5l-9.4-3v-103.9h-17v48c0,26.4-.3,48-.6,48-1.7,0-15.3-7.9-23.1-13.4l-8.8-6.2v-37.4c0-41.5,.2-43.3,6.3-56,4.1-8.5,14.9-20.3,21.7-23.8,4.5-2.3,5.1-2.2,3.7,.5Z"/>
</svg>