<?xml version="1.0" standalone="no"?>
<!DOCTYPE svg PUBLIC "-//W3C//DTD SVG 20010904//EN"
 "http://www.w3.org/TR/2001/REC-SVG-20010904/DTD/svg10.dtd">
<svg version="1.0" xmlns="http://www.w3.org/2000/svg"
 width="512.000000pt" height="512.000000pt" viewBox="0 0 512.000000 512.000000"
 preserveAspectRatio="xMidYMid meet">

<g transform="translate(0.000000,512.000000) scale(0.100000,-0.100000)"
fill="#000000" stroke="none">
<path d="M1775 5113 c-61 -16 -142 -107 -169 -192 -65 -201 -31 -512 83 -756
67 -143 151 -226 245 -244 174 -32 249 122 225 459 -23 314 -91 532 -206 660
-61 68 -112 89 -178 73z"/>
<path d="M4425 4920 c-226 -36 -484 -149 -596 -263 -95 -95 -121 -192 -76
-278 35 -65 94 -92 211 -97 148 -7 419 46 603 117 142 55 289 165 327 245 48
102 -19 207 -162 255 -74 25 -217 35 -307 21z"/>
<path d="M3403 4571 c-80 -23 -108 -42 -133 -91 -52 -102 8 -252 112 -281 53
-14 206 22 250 59 95 80 70 259 -44 318 -36 19 -109 17 -185 -5z"/>
<path d="M1915 3858 c-37 -13 -82 -54 -102 -93 -22 -42 -11 -184 20 -245 50
-102 211 -122 301 -37 49 47 59 93 42 199 -17 101 -25 118 -72 155 -29 22 -49
28 -98 30 -33 1 -74 -2 -91 -9z"/>
<path d="M2555 3797 c-29 -87 -84 -322 -77 -329 5 -5 25 -11 45 -15 35 -5 36
-5 47 38 6 24 18 70 27 101 l15 57 88 -118 c48 -65 93 -122 99 -125 11 -7 69
31 70 46 1 3 -33 51 -74 106 -41 55 -75 102 -75 105 0 3 33 -3 73 -14 90 -23
83 -24 90 9 3 15 8 34 12 43 5 13 -6 19 -57 32 -35 9 -112 30 -171 46 -76 20
-110 26 -112 18z"/>
<path d="M3073 3174 l-33 -25 78 -97 c43 -53 104 -134 136 -179 31 -46 60 -83
63 -83 3 0 21 9 39 21 39 23 38 26 -24 114 -53 76 -213 275 -220 275 -4 0 -22
-12 -39 -26z"/>
<path d="M685 3178 c-36 -13 -102 -63 -115 -88 -8 -15 -4 -22 25 -40 l35 -21
41 33 c39 32 45 33 123 32 58 -1 97 -7 139 -23 32 -13 60 -21 62 -19 6 6 35
81 33 83 -2 2 -40 15 -86 29 -89 28 -200 34 -257 14z"/>
<path d="M1423 2882 c-9 -15 -21 -32 -25 -39 -6 -7 12 -23 54 -49 35 -20 123
-75 197 -122 142 -90 134 -89 166 -31 17 31 28 22 -221 175 l-154 94 -17 -28z"/>
<path d="M484 2540 c3 -33 9 -87 12 -121 5 -48 9 -59 21 -55 8 3 28 6 45 6
l30 0 -7 98 c-9 135 -8 132 -62 132 l-45 0 6 -60z"/>
<path d="M2199 2389 c-11 -23 -19 -42 -17 -44 11 -10 254 -127 308 -148 113
-45 115 -44 129 3 7 23 11 43 9 45 -2 1 -26 10 -54 19 -28 9 -119 50 -202 91
l-152 74 -21 -40z"/>
<path d="M3381 2357 c-36 -59 -157 -131 -263 -158 -45 -11 -48 -14 -48 -43 0
-54 10 -60 71 -46 75 17 210 84 261 130 24 20 53 55 66 78 l22 40 -40 16 c-22
9 -42 16 -44 16 -3 0 -14 -15 -25 -33z"/>
<path d="M1249 2346 c-57 -20 -94 -52 -137 -116 -73 -109 -109 -285 -97 -480
19 -315 104 -523 240 -586 56 -27 86 -29 136 -13 123 42 173 206 173 564 0
166 -3 216 -21 296 -36 166 -114 304 -190 335 -39 17 -57 17 -104 0z"/>
<path d="M405 1682 c-64 -40 -124 -147 -162 -291 -48 -183 -42 -559 11 -727
40 -125 93 -175 185 -176 190 -1 322 273 322 671 0 161 -17 255 -65 358 -71
150 -198 222 -291 165z"/>
<path d="M1214 1081 c-79 -36 -109 -105 -102 -233 4 -60 10 -85 29 -113 73
-107 266 -99 326 15 18 34 23 59 23 119 0 42 -5 92 -10 112 -27 96 -162 147
-266 100z"/>
<path d="M384 421 c-23 -10 -52 -34 -65 -52 -21 -30 -24 -47 -27 -136 -3 -92
-1 -106 19 -143 35 -62 79 -85 165 -85 60 0 76 4 113 28 58 38 71 75 71 195 0
87 -3 103 -23 133 -50 74 -162 101 -253 60z"/>
</g>
</svg>
